<svg id="dark-theme" width="40" height="40" viewBox="0 0 40 40" fill="none" xmlns="http://www.w3.org/2000/svg">
<path d="M20.2836 28.1637C15.7493 28.1637 12.0605 24.4749 12.0605 19.9406C12.0605 15.6864 15.2507 12.1687 19.4807 11.758C19.7516 11.731 20.0073 11.88 20.119 12.1271C20.2313 12.3743 20.1741 12.6651 19.9766 12.8507C18.9454 13.8215 18.3777 15.1311 18.3777 16.5389C18.3777 19.3352 20.6527 21.6102 23.449 21.6102C24.9739 21.6102 26.4033 20.9324 27.3719 19.7518C27.544 19.5419 27.8311 19.4658 28.0836 19.5597C28.3378 19.6546 28.5029 19.9007 28.4954 20.1716C28.3713 24.653 24.764 28.1637 20.2836 28.1637ZM17.9498 13.3844C15.2264 14.3422 13.3281 16.9226 13.3281 19.9406C13.3281 23.7762 16.4481 26.8962 20.2836 26.8962C23.4959 26.8962 26.1772 24.762 26.9834 21.8028C25.9506 22.4984 24.7262 22.8788 23.449 22.8788C19.9534 22.8788 17.1097 20.0356 17.1097 16.5395C17.1097 15.4106 17.401 14.3325 17.9498 13.3844Z" fill="white"/>
<circle cx="19.5576" cy="20.2549" r="19" stroke="white"/>
</svg>